<?xml version="1.0" standalone="no"?>
<!DOCTYPE svg PUBLIC "-//W3C//DTD SVG 20010904//EN"
 "http://www.w3.org/TR/2001/REC-SVG-20010904/DTD/svg10.dtd">
<svg version="1.0" xmlns="http://www.w3.org/2000/svg"
 width="1200.000000pt" height="1200.000000pt" viewBox="0 0 1200.000000 1200.000000"
 preserveAspectRatio="xMidYMid meet">
<metadata>
Created by potrace 1.14, written by Peter Selinger 2001-2017
</metadata>
<g transform="translate(0.000000,1200.000000) scale(0.100000,-0.100000)"
fill="#000000" stroke="none">
<path d="M5786 10965 c-25 -25 -37 -47 -41 -79 -8 -51 8 -43 -210 -102 -233
-62 -274 -74 -355 -97 -102 -29 -115 -33 -205 -57 -38 -10 -153 -41 -255 -70
-102 -28 -219 -60 -260 -71 -41 -11 -129 -36 -195 -54 -66 -19 -165 -46 -219
-60 l-99 -26 -23 29 c-31 39 -75 56 -125 49 -76 -10 -124 -88 -101 -163 l11
-36 -198 -194 c-110 -107 -217 -208 -240 -224 -22 -17 -41 -34 -41 -40 0 -9
-310 -317 -830 -825 -135 -132 -307 -300 -382 -374 l-137 -135 -36 11 c-57 18
-125 -8 -150 -57 -29 -57 -14 -121 39 -168 15 -12 24 -27 21 -31 -3 -5 -19
-74 -36 -153 -17 -78 -46 -217 -66 -308 -19 -91 -43 -203 -53 -250 -10 -47
-28 -130 -40 -185 -12 -55 -28 -129 -35 -165 -7 -36 -24 -119 -39 -185 -14
-66 -31 -145 -37 -175 -7 -30 -20 -91 -30 -135 -10 -44 -39 -179 -64 -300 -63
-302 -66 -317 -75 -341 -6 -15 -21 -24 -47 -29 -25 -4 -50 -20 -75 -46 -34
-35 -38 -46 -38 -91 0 -39 6 -59 24 -83 28 -36 81 -65 119 -65 15 0 27 -7 30
-17 9 -33 108 -318 127 -368 17 -45 51 -142 235 -675 80 -231 313 -898 367
-1050 44 -127 44 -125 10 -165 -43 -49 -50 -93 -22 -150 17 -35 33 -52 66 -68
40 -19 48 -20 93 -8 l50 13 123 -98 c387 -307 437 -346 613 -485 66 -52 299
-236 519 -409 219 -173 457 -361 529 -418 139 -109 148 -118 140 -138 -8 -21
15 -79 40 -101 38 -35 83 -45 125 -27 20 8 46 23 57 33 19 17 36 17 260 10
379 -13 946 -29 1240 -35 241 -5 273 -8 296 -25 45 -31 75 -33 119 -10 36 19
57 21 204 21 153 0 164 -1 182 -21 55 -61 133 -63 193 -5 36 35 78 54 261 116
52 17 104 36 115 40 21 10 263 94 330 116 22 7 92 31 155 54 63 23 185 66 270
95 85 30 182 64 215 76 33 12 116 41 185 65 69 23 177 61 240 84 167 60 170
61 231 54 102 -11 153 36 147 136 l-3 58 283 373 c155 206 368 487 472 624
105 138 268 354 364 480 500 661 474 629 514 636 78 11 122 59 122 132 0 38
-6 52 -32 80 -18 19 -39 36 -47 38 -17 6 -18 35 -25 1024 -3 446 -9 1038 -12
1318 l-6 507 39 39 c67 64 67 137 1 196 -36 33 -44 36 -94 34 -29 -1 -56 -1
-58 2 -3 4 -145 187 -267 344 -58 76 -354 457 -1032 1329 -394 507 -428 553
-422 581 17 83 16 93 -3 132 -28 54 -60 73 -123 73 -61 0 -108 -29 -129 -79
-7 -17 -18 -31 -26 -31 -7 0 -75 15 -151 34 -155 39 -500 124 -1013 250 -190
47 -500 123 -690 170 -190 46 -412 101 -495 121 -174 43 -188 49 -180 76 9 28
-29 101 -64 122 -16 9 -47 17 -70 17 -33 0 -47 -6 -75 -35z m-126 -193 c0 -4
-53 -30 -117 -58 -65 -29 -282 -124 -483 -211 l-365 -160 -205 -7 c-113 -3
-256 -9 -317 -13 -68 -3 -113 -2 -113 3 0 6 96 36 213 68 116 31 223 61 237
66 14 4 111 31 215 60 246 67 273 74 380 105 108 32 138 40 365 104 195 55
190 54 190 43z m133 -37 c-2 -21 -12 -68 -23 -105 -10 -36 -31 -106 -46 -157
l-27 -92 -51 -5 c-55 -6 -242 -13 -601 -22 -210 -5 -228 -5 -209 10 12 8 43
24 70 35 27 10 78 32 114 49 129 59 266 120 340 152 41 18 89 38 105 46 205
93 303 133 315 131 11 -2 14 -14 13 -42z m345 -125 c179 -133 191 -145 185
-169 -3 -14 -10 -31 -15 -37 -8 -11 -544 -32 -554 -21 -5 5 83 321 97 349 9
16 48 28 80 23 8 -1 101 -66 207 -145z m220 80 c114 -28 223 -55 242 -60 19
-5 76 -19 125 -30 101 -24 283 -68 585 -141 113 -28 241 -59 285 -69 138 -33
407 -97 485 -117 64 -15 70 -18 41 -21 -19 -2 -70 1 -115 7 -45 6 -166 20
-271 31 -363 39 -607 66 -827 89 l-97 11 -328 165 c-301 152 -361 185 -339
185 4 0 100 -23 214 -50z m-77 -66 c82 -42 149 -79 149 -83 0 -4 -17 -14 -38
-20 -44 -15 -34 -20 -199 112 -114 90 -106 90 88 -9z m405 -215 c3 -6 -5 -8
-20 -4 -14 3 -37 7 -50 10 -24 5 -41 29 -31 45 5 9 90 -34 101 -51z m-372 -55
c9 -3 16 -11 16 -18 0 -14 -699 -466 -722 -466 -6 0 -7 8 -3 18 4 9 15 46 25
82 10 36 38 133 62 215 l43 150 255 11 c140 6 267 11 282 12 14 1 33 -1 42 -4z
m528 -25 c40 -10 604 -293 628 -315 21 -20 4 -31 -75 -48 -77 -16 -74 -17
-201 55 -21 12 -59 33 -84 47 -44 24 -148 83 -220 125 -19 11 -73 40 -120 65
-47 25 -101 56 -120 69 l-35 24 95 -7 c52 -3 111 -10 132 -15z m-1167 1 c3 -5
-11 -64 -31 -132 -37 -128 -39 -134 -73 -260 -34 -125 -29 -119 -173 -210 -73
-47 -142 -89 -153 -95 -12 -6 -77 -7 -170 -2 -82 4 -251 12 -375 18 -502 24
-932 49 -937 55 -2 2 2 45 9 96 9 74 16 95 32 105 12 8 120 57 241 110 121 54
258 115 303 136 46 22 86 39 88 39 4 0 167 72 244 107 28 13 81 17 255 21 121
2 303 7 405 11 278 12 328 12 335 1z m1465 -30 c58 -6 149 -15 203 -20 53 -6
141 -14 195 -20 53 -5 165 -16 247 -25 83 -8 195 -19 250 -25 195 -21 291 -30
370 -36 83 -6 111 -11 103 -19 -2 -3 -110 -25 -239 -50 -129 -25 -301 -59
-382 -75 -181 -37 -185 -37 -193 -5 -3 14 -20 36 -36 50 -37 32 -87 33 -140 3
l-39 -22 -249 124 c-235 117 -287 149 -222 136 15 -3 74 -10 132 -16z m-2562
-2 c-2 -6 -44 -29 -94 -50 -49 -21 -102 -45 -119 -52 -16 -8 -120 -53 -230
-101 -110 -48 -228 -100 -263 -116 -35 -16 -68 -29 -73 -29 -11 0 -11 2 4 118
l12 94 45 21 c38 19 80 63 92 98 2 5 120 13 283 18 154 4 295 9 313 9 22 1 32
-2 30 -10z m2055 -26 c29 -16 133 -74 232 -129 264 -146 297 -165 328 -180 15
-8 27 -18 27 -22 0 -4 -75 -22 -167 -40 -93 -18 -188 -37 -213 -42 -117 -26
-231 -45 -235 -40 -3 5 -64 296 -85 404 -6 32 -4 42 13 58 28 25 40 24 100 -9z
m-247 3 c10 -8 31 -15 46 -15 15 0 29 -4 33 -10 7 -11 85 -405 85 -429 0 -15
-21 -22 -117 -40 -65 -13 -183 -35 -263 -51 -80 -16 -244 -48 -364 -71 l-219
-42 -23 26 c-22 26 -22 26 -5 84 l18 58 134 88 c231 152 644 416 650 417 3 0
14 -7 25 -15z m-2616 -112 c-1 -44 -30 -237 -37 -243 -5 -4 -37 -19 -73 -34
-36 -16 -98 -44 -139 -62 -41 -19 -76 -32 -79 -30 -6 6 310 386 321 386 4 0 7
-8 7 -17z m4801 -70 c21 -25 98 -55 124 -49 29 7 36 -2 70 -99 34 -99 151
-435 240 -693 l68 -193 -28 -29 -27 -28 -49 29 c-28 16 -52 29 -54 29 -2 0
-63 34 -136 75 -72 41 -134 75 -136 75 -3 0 -89 64 -191 143 -103 79 -254 195
-337 257 -82 63 -190 145 -240 184 -49 38 -112 84 -138 104 -85 62 -93 59 303
126 85 15 225 40 310 55 187 35 204 36 221 14z m-5018 -97 c-14 -26 -157 -186
-165 -186 -23 0 0 33 79 112 48 49 89 88 91 88 2 0 -1 -6 -5 -14z m3939 -67
c7 -11 30 -29 51 -40 26 -14 37 -26 37 -43 0 -35 -8 -36 -58 -7 -26 14 -68 38
-94 51 -71 37 -64 49 34 58 10 1 23 -7 30 -19z m-155 -47 c26 -16 84 -48 128
-71 44 -24 86 -49 93 -56 14 -12 11 -122 -18 -625 -5 -91 -14 -273 -20 -405
-6 -132 -13 -245 -15 -252 -2 -7 -17 -19 -33 -27 -30 -15 -30 -15 -338 169
-192 114 -313 193 -321 207 -6 13 -26 93 -43 178 -140 682 -156 771 -146 778
13 9 600 129 638 131 15 0 49 -12 75 -27z m360 -5 c15 -13 147 -113 293 -222
394 -296 402 -304 165 -171 -151 85 -419 235 -475 266 -62 34 -65 38 -68 77
-2 33 1 44 20 57 29 21 31 20 65 -7z m1350 -203 c92 -119 179 -231 193 -249
14 -18 70 -90 125 -160 55 -70 127 -162 160 -204 173 -225 499 -642 798 -1024
73 -92 134 -172 136 -179 3 -9 -249 189 -269 212 -3 3 -79 66 -170 140 -286
232 -434 359 -453 385 -10 14 -38 35 -62 46 -24 11 -50 28 -58 37 -8 9 -56
103 -105 207 -130 276 -278 587 -367 770 -95 198 -117 248 -106 241 5 -4 85
-103 178 -222z m-5322 119 c-4 -43 -11 -82 -15 -87 -5 -4 -65 -4 -136 0 -106
8 -129 12 -132 25 -2 12 16 25 64 45 36 16 96 43 133 61 95 46 94 46 86 -44z
m5189 -95 c24 -51 59 -127 79 -168 19 -41 65 -138 102 -215 67 -140 105 -223
105 -231 0 -2 -21 -4 -47 -4 l-48 0 -68 198 c-38 108 -93 266 -123 350 -30 83
-54 154 -54 157 0 19 16 -7 54 -87z m-2343 37 c14 -61 167 -825 173 -860 0 -5
-3 -11 -7 -13 -4 -2 -264 150 -577 338 -417 250 -570 346 -570 360 0 20 18 25
205 61 66 12 260 50 430 85 171 34 316 62 324 61 8 -1 18 -16 22 -32z m-1061
-6 c0 -24 -22 -49 -45 -49 -13 0 -37 -14 -54 -31 -22 -22 -38 -29 -58 -27 -25
3 -20 8 57 60 90 60 100 64 100 47z m2167 -35 c26 -15 62 -34 78 -44 17 -10
50 -29 75 -42 25 -14 106 -59 180 -100 74 -41 164 -91 200 -110 361 -198 465
-261 600 -362 170 -127 210 -163 210 -188 0 -10 -4 -18 -8 -18 -5 0 -103 -59
-218 -131 -115 -72 -256 -159 -314 -194 l-105 -63 -240 -16 c-132 -9 -300 -21
-373 -27 l-134 -9 -41 41 -42 40 6 112 c4 62 12 234 18 382 7 149 16 337 22
418 5 82 9 188 9 236 0 115 2 116 77 75z m-4448 -41 c-1 -16 -331 -322 -412
-382 -17 -13 63 71 180 188 117 116 217 211 223 211 5 0 10 -8 9 -17z m374 7
l97 0 0 -41 c0 -22 -4 -70 -10 -107 -19 -137 -90 -712 -90 -733 0 -33 -21 14
-44 101 -32 123 -139 519 -170 635 l-25 89 37 33 c31 28 43 32 72 28 19 -3 79
-5 133 -5z m397 -20 c102 -5 271 -14 375 -20 105 -5 282 -14 395 -20 342 -16
384 -20 369 -35 -8 -7 -147 -97 -309 -200 -162 -104 -389 -249 -505 -323 -115
-74 -301 -193 -413 -264 l-203 -129 -34 27 c-38 29 -39 34 -26 132 13 92 26
194 61 487 39 322 41 339 47 348 5 9 13 9 243 -3z m-589 -337 c40 -164 77
-311 80 -328 4 -16 21 -84 38 -150 30 -112 30 -121 14 -130 -35 -20 -72 -63
-78 -91 -4 -16 -8 -34 -10 -40 -1 -5 -38 -15 -81 -22 -77 -11 -126 -17 -389
-47 -71 -8 -169 -20 -216 -26 -48 -6 -91 -10 -97 -8 -7 2 0 22 17 49 15 25 41
70 58 100 160 292 567 990 577 990 8 0 39 -108 87 -297z m-268 95 c-55 -95
-189 -328 -298 -518 -109 -190 -209 -364 -222 -387 -27 -47 -21 -45 -183 -63
-52 -6 -129 -15 -170 -20 -78 -10 -206 -25 -297 -35 -48 -5 -53 -4 -53 14 0
11 51 68 128 142 133 128 168 159 661 589 168 146 355 308 415 362 61 53 112
95 114 93 2 -2 -41 -81 -95 -177z m2235 160 c6 -6 12 -16 12 -23 0 -7 -188
-142 -417 -300 -230 -159 -436 -301 -458 -317 -22 -16 -65 -45 -95 -66 -30
-21 -143 -99 -250 -173 -107 -74 -209 -145 -227 -158 -34 -26 -45 -25 -149 5
-55 16 -55 16 -52 51 3 38 -16 25 403 292 33 21 161 103 285 183 906 584 807
526 877 520 32 -2 64 -9 71 -14z m609 -294 c225 -136 487 -294 583 -352 96
-57 178 -108 183 -111 6 -6 135 -630 141 -679 1 -14 -21 -24 -269 -117 -82
-31 -214 -82 -293 -112 l-143 -56 -77 22 c-42 12 -90 26 -107 31 -36 11 -88
25 -135 39 -19 5 -107 31 -195 56 -88 26 -179 51 -202 57 -23 5 -46 15 -51 21
-5 7 -5 70 -1 147 4 74 13 268 19 430 6 162 15 370 21 462 5 92 9 210 9 262
l0 96 48 24 c26 14 50 25 54 26 4 0 191 -111 415 -246z m-551 34 c-4 -106 -11
-274 -16 -373 -5 -99 -14 -292 -20 -430 -16 -383 -19 -415 -37 -415 -8 0 -101
25 -207 55 -105 30 -207 59 -226 65 -19 5 -80 23 -135 39 -55 17 -165 49 -245
72 -136 39 -175 50 -347 99 -180 51 -219 63 -226 69 -4 4 41 41 100 81 59 41
338 231 618 424 705 483 738 506 743 506 3 0 2 -87 -2 -192z m3554 -333 c21
-25 1 -31 -22 -7 -18 18 -19 22 -6 22 8 0 21 -7 28 -15z m338 -141 c13 -26 21
-49 18 -51 -3 -3 -20 7 -40 22 -31 24 -34 29 -24 51 6 13 14 24 18 24 3 0 16
-21 28 -46z m-181 -58 c9 -7 63 -250 57 -256 -5 -4 -121 -15 -259 -24 -137
-10 -290 -21 -340 -25 -49 -4 -93 -5 -97 -2 -5 4 16 21 45 37 28 17 108 66
177 109 69 43 170 106 225 140 l100 62 45 -20 c25 -11 46 -20 47 -21z m149
-12 l39 -35 -47 31 c-27 17 -48 33 -48 35 0 13 21 1 56 -31z m-1 -72 c93 -71
96 -75 89 -105 -12 -61 -20 -67 -79 -67 -29 0 -56 4 -59 9 -3 4 -12 34 -21 65
-8 31 -22 81 -30 111 -8 31 -15 58 -15 61 0 11 21 -3 115 -74z m-2224 -73
c129 -78 260 -157 292 -176 51 -30 57 -38 59 -68 0 -19 1 -40 2 -46 1 -7 -15
-18 -34 -25 -19 -7 -124 -46 -234 -88 -109 -42 -202 -74 -206 -71 -4 2 -10 21
-13 42 -5 34 -99 494 -112 551 -3 12 -1 22 4 22 5 0 114 -64 242 -141z m-3581
-156 c0 -14 -75 -153 -151 -278 -36 -59 -40 -62 -245 -181 -115 -67 -317 -184
-449 -261 -132 -77 -258 -151 -280 -163 -22 -13 -88 -52 -148 -87 -59 -35
-114 -63 -122 -63 -16 0 -20 30 -6 46 5 5 18 25 29 44 10 19 83 148 162 285
79 138 186 324 237 415 52 91 100 171 107 178 12 12 96 25 361 57 251 30 450
56 460 59 13 5 45 -32 45 -51z m310 25 c22 -7 40 -15 40 -18 0 -3 -22 -22 -49
-42 l-49 -37 -41 21 -42 21 32 33 c36 37 50 40 109 22z m5619 -29 c16 -15 21
-28 16 -43 -11 -35 -36 -146 -56 -246 -15 -76 -25 -81 -39 -18 -7 29 -28 109
-46 177 -19 69 -34 130 -34 138 0 9 18 13 68 13 56 0 72 -4 91 -21z m614 -323
l436 -328 -6 -44 c-7 -55 9 -96 54 -133 29 -24 33 -32 24 -47 -7 -11 -38 -89
-70 -174 -120 -317 -211 -552 -217 -562 -5 -7 -9 -6 -15 3 -7 14 -86 200 -195
464 -30 72 -59 139 -64 150 -5 11 -30 70 -56 130 -25 61 -63 151 -84 200 -21
50 -61 146 -90 215 -28 69 -60 143 -70 165 -55 122 -119 288 -114 296 3 5 11
6 18 2 7 -5 210 -156 449 -337z m-800 312 c4 -21 69 -268 98 -377 10 -34 10
-58 0 -105 -11 -58 -52 -239 -71 -316 -5 -19 -13 -55 -19 -80 -5 -25 -19 -83
-30 -130 -10 -47 -31 -139 -46 -205 -30 -142 -43 -197 -55 -245 -5 -19 -14
-57 -20 -85 -6 -27 -15 -66 -20 -85 -5 -19 -21 -87 -35 -151 l-26 -117 -40 -6
c-22 -4 -44 -4 -49 -1 -5 3 -49 59 -98 123 -192 254 -529 699 -612 807 -25 33
-131 171 -234 308 l-187 247 90 58 c50 31 188 117 307 191 l216 134 305 23
c551 41 519 41 526 12z m-5033 -77 c263 -78 471 -139 583 -170 158 -45 557
-163 575 -171 21 -9 22 -14 17 -87 -3 -43 -8 -136 -11 -206 -6 -119 -8 -129
-28 -138 -11 -5 -28 -14 -36 -20 -12 -8 -38 0 -115 36 -171 81 -268 126 -315
147 -25 11 -115 53 -200 93 -85 40 -180 84 -210 98 -102 46 -214 99 -318 148
-57 27 -105 49 -107 49 -7 0 -260 122 -271 131 -7 6 -9 22 -5 41 9 44 122 129
166 124 17 -1 140 -35 275 -75z m-591 52 c3 -2 -5 -17 -17 -33 -14 -18 -22
-44 -22 -69 0 -38 -1 -40 -86 -91 -47 -28 -88 -49 -91 -46 -2 2 6 24 20 48 14
23 45 80 71 125 l46 82 38 -6 c20 -3 39 -7 41 -10z m6003 -170 c43 -104 98
-237 123 -298 26 -60 66 -157 90 -215 24 -58 61 -148 83 -200 133 -316 290
-695 304 -733 13 -36 6 -60 -75 -267 l-64 -165 -129 3 c-71 2 -133 7 -138 12
-5 5 -22 58 -37 117 -25 100 -60 236 -123 473 -79 300 -106 405 -196 755 -23
88 -50 191 -61 228 -11 38 -18 76 -15 84 3 8 24 96 47 196 23 100 43 185 46
190 2 4 19 7 36 7 l33 0 76 -187z m-1322 150 c0 -5 -40 -32 -88 -62 -48 -29
-121 -75 -162 -101 -168 -107 -272 -170 -279 -169 -7 0 -159 203 -166 221 -3
7 5 25 17 40 25 29 -2 26 488 59 85 6 157 12 159 15 7 7 31 5 31 -3z m-5740
-18 c0 -9 -11 -32 -24 -53 -23 -36 -216 -369 -302 -522 -23 -41 -65 -115 -94
-165 -29 -49 -62 -107 -73 -127 -27 -49 -44 -48 -57 5 -7 23 -18 65 -26 92 -7
28 -39 147 -70 265 -31 118 -62 239 -70 268 -8 29 -14 55 -14 57 0 3 16 11 35
19 29 13 66 55 78 90 2 5 32 13 68 17 35 5 100 13 144 18 44 6 134 17 200 25
144 19 176 23 193 25 6 0 12 -6 12 -14z m4924 -130 c-1 -60 -86 -410 -102
-426 -10 -8 -59 -41 -109 -73 l-93 -57 -32 24 c-18 14 -52 30 -74 36 l-41 11
-33 165 c-18 91 -31 167 -29 169 5 4 179 71 314 121 50 18 106 40 125 48 53
24 75 18 74 -18z m103 3 c30 -34 153 -197 153 -203 0 -12 -289 -189 -297 -181
-3 3 11 74 30 158 20 84 39 170 42 191 6 32 25 56 46 57 3 0 15 -10 26 -22z
m-3949 -25 l21 -18 -39 -350 c-68 -607 -91 -817 -100 -905 -21 -196 -30 -280
-40 -365 -6 -49 -13 -117 -16 -150 -8 -93 -11 -102 -50 -124 -34 -21 -37 -21
-59 -4 -178 136 -695 560 -695 570 0 7 80 151 177 321 97 169 193 336 213 372
124 222 295 516 304 523 23 16 251 147 257 147 4 0 16 -8 27 -17z m140 7 c9
-5 76 -37 147 -71 397 -187 486 -229 654 -310 101 -49 185 -89 187 -89 4 0
233 -109 397 -190 157 -77 161 -94 45 -172 -46 -31 -164 -111 -263 -179 -646
-440 -842 -572 -857 -576 -12 -4 -18 0 -18 11 0 10 -16 83 -36 164 -91 376
-135 560 -173 717 -23 94 -68 281 -101 417 -33 136 -60 254 -60 262 0 24 46
34 78 16z m-43 -325 c15 -66 38 -163 51 -215 13 -52 33 -135 44 -185 21 -90
77 -322 164 -684 26 -106 46 -199 44 -207 -2 -8 -111 -88 -243 -178 l-240
-164 -28 26 c-27 26 -29 30 -23 87 4 33 18 173 31 310 14 138 29 291 35 340 5
50 14 140 20 200 6 61 22 220 35 355 14 135 30 301 36 370 6 69 13 132 16 140
6 18 21 -32 58 -195z m-1941 40 c3 -71 11 -317 17 -545 l11 -415 -226 -479
c-124 -263 -228 -481 -231 -484 -11 -12 -13 6 -4 43 5 22 30 141 55 265 46
225 83 400 130 625 13 66 29 143 34 170 6 28 14 70 20 95 6 25 14 68 19 97 6
28 17 80 25 115 17 70 76 355 107 518 22 114 28 135 33 129 2 -2 6 -62 10
-134z m5154 -40 c30 -150 31 -160 15 -169 -10 -5 -35 -26 -55 -48 -21 -21 -43
-38 -50 -38 -7 0 -60 14 -118 31 -58 16 -134 38 -170 49 -36 10 -117 33 -180
51 -63 17 -118 35 -123 38 -4 4 44 26 105 50 62 23 129 49 148 56 19 8 85 33
145 55 61 23 137 52 170 65 33 13 65 23 70 21 6 -1 25 -74 43 -161z m-3721 58
c-19 -32 -110 -188 -202 -348 -370 -640 -406 -700 -416 -704 -6 -2 -25 10 -42
26 -18 16 -130 108 -250 203 -212 170 -217 175 -211 205 3 16 7 31 8 32 0 1
100 58 221 128 121 70 225 131 230 135 6 4 30 19 55 33 25 13 90 51 145 82 55
32 118 68 140 80 22 13 110 64 195 114 85 50 156 86 158 81 2 -5 -12 -36 -31
-67z m2266 23 c30 -8 148 -42 263 -76 115 -34 240 -71 278 -82 38 -11 65 -23
60 -27 -5 -4 -31 -16 -59 -25 -45 -16 -192 -72 -488 -186 -91 -35 -111 -39
-124 -28 -14 11 -15 38 -9 217 6 187 10 221 21 221 2 0 28 -6 58 -14z m2401
-138 c64 -84 202 -265 306 -403 105 -137 228 -299 274 -360 46 -60 135 -177
198 -260 63 -82 140 -183 171 -224 31 -41 57 -78 57 -83 0 -11 -14 -10 -25 1
-6 5 -107 65 -225 134 -118 68 -314 182 -435 252 -535 313 -632 369 -665 388
-19 10 -39 23 -45 27 -11 8 -95 56 -137 77 -16 8 -28 18 -28 23 0 13 28 144
56 262 l25 107 132 82 c73 44 148 92 167 104 19 13 40 24 46 24 6 1 64 -68
128 -151z m-6016 45 c25 -109 91 -378 98 -405 4 -13 -2 -21 -20 -28 -61 -23
-79 -120 -31 -170 l27 -28 -28 -64 c-50 -115 -50 -116 -62 219 -7 169 -15 368
-18 441 -4 78 -3 132 3 132 5 0 19 -44 31 -97z m7510 -13 c5 -25 26 -106 45
-180 67 -253 146 -557 218 -840 22 -85 56 -216 76 -290 53 -200 53 -190 7
-190 -45 0 -308 17 -503 34 l-135 11 -7 29 c-5 16 -17 38 -29 51 -16 17 -18
27 -11 51 5 16 14 54 20 84 7 30 16 71 21 90 5 19 21 89 35 155 15 66 35 158
46 205 11 47 24 103 29 125 5 22 19 81 30 130 11 50 25 110 30 135 13 58 76
339 91 408 14 59 22 57 37 -8z m-3118 -121 c104 -30 140 -41 203 -58 17 -5
113 -33 212 -62 l180 -54 7 -35 c4 -19 8 -42 10 -51 2 -11 -41 -50 -132 -119
-208 -159 -337 -258 -426 -327 -45 -35 -89 -63 -98 -63 -8 0 -87 46 -175 103
-88 56 -259 165 -380 242 -121 77 -222 145 -225 152 -10 24 27 43 249 126 127
48 282 107 345 131 63 25 117 45 120 45 3 1 52 -13 110 -30z m1100 -49 c-17
-66 -50 -215 -50 -230 -1 -40 -16 -43 -66 -15 l-49 27 2 81 2 82 78 51 c43 28
81 49 85 45 4 -4 3 -22 -2 -41z m3205 -232 c-3 -7 -27 -200 -55 -428 -28 -228
-55 -442 -60 -476 -6 -33 -10 -77 -10 -98 0 -30 -3 -37 -17 -34 -11 2 -32 38
-60 103 -23 55 -51 122 -63 149 -12 27 -22 57 -22 65 -1 9 15 57 34 106 20 50
67 171 105 270 39 99 85 219 104 268 18 48 37 87 41 87 4 0 5 -6 3 -12z
m-4992 -120 c79 -51 247 -158 375 -238 127 -80 231 -150 231 -156 1 -6 -79
-72 -176 -147 -98 -74 -230 -174 -293 -223 -238 -182 -268 -204 -273 -204 -2
0 -7 64 -11 143 -4 78 -9 169 -11 202 -3 33 -9 166 -15 295 -5 129 -13 272
-16 316 -6 73 -4 83 12 93 11 6 22 11 26 11 4 0 71 -42 151 -92z m1379 68 l36
-19 7 -86 c6 -82 11 -167 35 -620 6 -107 8 -201 5 -209 -3 -8 -13 -12 -23 -10
-9 3 -118 69 -242 148 -124 78 -286 181 -360 228 -74 47 -139 89 -143 93 -5 4
109 96 253 205 144 110 289 221 323 247 33 26 63 46 66 45 3 -2 22 -12 43 -22z
m277 -7 l53 -31 -6 -41 c-7 -43 -89 -423 -106 -487 -5 -19 -13 -55 -19 -80
-17 -77 -52 -234 -57 -257 -11 -56 -21 -12 -28 125 -11 250 -24 512 -32 633
l-7 115 39 12 c22 6 48 18 59 26 29 22 43 20 104 -15z m-1877 -107 c15 -273
33 -708 33 -831 l0 -134 -215 -164 c-118 -90 -314 -238 -434 -331 -121 -92
-222 -168 -226 -170 -4 -1 -59 22 -122 53 l-115 55 -31 128 c-17 70 -49 201
-71 292 -22 91 -52 212 -66 270 -20 83 -23 106 -13 116 19 17 475 328 578 394
22 14 115 76 207 139 374 255 446 302 457 298 7 -2 14 -47 18 -115z m2085 -15
c59 -35 182 -108 273 -162 91 -54 183 -108 205 -120 57 -32 191 -111 325 -190
63 -37 129 -75 145 -85 17 -10 98 -57 180 -105 83 -49 183 -107 222 -129 40
-23 73 -44 73 -47 0 -15 -61 -17 -532 -19 -271 -2 -515 -4 -543 -5 -27 -1
-178 -3 -335 -4 -265 -2 -285 -1 -297 16 -7 10 -17 24 -24 31 -13 16 -9 42 60
347 18 77 41 178 52 225 11 47 24 103 29 125 36 157 44 185 51 185 4 0 56 -29
116 -63z m3169 -1072 c4 -578 4 -1047 0 -1044 -4 4 -13 53 -21 110 -8 57 -26
185 -40 284 -14 99 -30 207 -35 240 -5 33 -14 96 -20 140 -7 44 -18 120 -26
170 l-14 89 35 34 c29 29 35 41 35 77 0 28 -7 51 -21 69 -21 26 -21 32 -10
119 16 127 28 230 46 382 16 139 33 282 41 354 18 143 24 -80 30 -1024z
m-8464 1002 c35 -29 88 -73 119 -98 147 -117 308 -250 313 -258 4 -5 -15 -44
-40 -88 -26 -43 -71 -121 -102 -173 -30 -52 -63 -108 -72 -125 -10 -16 -42
-73 -73 -125 -30 -52 -78 -137 -108 -187 -31 -54 -56 -88 -60 -81 -4 6 -10 56
-13 112 -4 56 -11 151 -16 211 -17 196 -30 366 -45 580 -9 116 -18 220 -20
232 -5 23 17 53 41 53 7 0 42 -24 76 -53z m-148 -119 c3 -68 11 -170 16 -228
11 -134 26 -322 45 -575 8 -110 18 -223 21 -250 6 -49 3 -55 -64 -170 -38 -66
-76 -120 -83 -120 -10 0 -16 23 -21 85 -7 92 -25 590 -34 945 l-6 220 44 95
c25 52 48 103 51 113 14 40 24 2 31 -115z m4358 -245 c59 -38 181 -115 272
-173 401 -254 373 -233 379 -276 3 -28 0 -44 -12 -55 -9 -9 -252 -193 -541
-409 -289 -216 -614 -460 -723 -542 -112 -84 -205 -148 -214 -146 -30 6 -29
-10 -63 763 -6 127 -12 244 -14 262 -3 17 1 38 7 46 7 8 59 50 117 94 158 118
527 400 595 454 33 26 67 48 76 48 9 1 63 -29 121 -66z m-4523 -538 c12 -526
12 -550 -6 -560 -10 -5 -36 -27 -57 -48 -46 -45 -35 -46 -236 25 l-125 44 -5
45 c-3 24 -14 58 -25 76 l-19 32 47 98 c104 221 149 317 234 493 48 102 106
224 128 271 22 48 43 84 46 80 4 -3 12 -253 18 -556z m988 353 c102 -84 209
-172 237 -194 248 -201 290 -240 299 -274 5 -19 13 -39 18 -44 5 -6 9 -15 9
-22 0 -6 -48 -70 -107 -141 -60 -71 -164 -198 -232 -281 l-125 -151 -55 5
c-31 3 -199 9 -374 13 -175 5 -323 13 -328 18 -5 5 -14 79 -19 163 -6 85 -13
163 -16 172 -5 18 483 887 499 888 4 0 92 -69 194 -152z m7495 -118 c41 -99
48 -127 39 -139 -6 -9 -21 -31 -32 -49 l-21 -33 -87 7 c-47 4 -87 8 -89 9 -7
7 122 335 131 332 5 -1 31 -58 59 -127z m-6254 -47 c6 -27 27 -113 46 -193 19
-80 53 -223 76 -319 23 -95 39 -175 37 -177 -2 -3 -148 66 -323 152 -175 86
-329 160 -341 165 -24 9 -31 33 -13 44 6 3 10 16 10 28 1 17 52 56 242 185
133 89 245 162 248 162 4 0 12 -21 18 -47z m4846 -149 l28 -34 -194 -278
c-107 -152 -358 -511 -558 -797 -538 -770 -498 -717 -519 -705 -10 5 -21 20
-24 32 -3 13 -24 86 -47 163 -23 77 -44 149 -47 160 -3 11 -19 64 -35 119 -16
54 -38 128 -48 165 -10 36 -53 183 -95 326 -42 143 -85 289 -95 325 -10 36
-46 157 -79 270 -33 113 -61 214 -61 226 0 11 8 28 18 37 16 15 106 17 862 24
465 5 850 7 855 5 6 -2 23 -19 39 -38z m472 -4 c66 -5 180 -14 254 -20 97 -7
138 -14 146 -25 17 -23 77 -266 67 -274 -4 -3 -20 -17 -34 -29 l-26 -23 -244
142 c-134 79 -281 163 -326 188 -45 25 -83 50 -83 55 0 5 28 6 64 2 35 -3 117
-11 182 -16z m35 -212 c344 -199 350 -203 345 -231 -3 -15 1 -46 8 -68 l14
-40 -177 -136 c-97 -75 -207 -161 -245 -190 -37 -29 -72 -53 -77 -53 -5 0 -11
12 -15 28 -3 15 -10 41 -15 57 -4 17 -24 91 -43 165 -20 74 -67 252 -105 395
-38 143 -67 263 -64 268 2 4 8 7 14 7 5 0 167 -91 360 -202z m-2352 -130 c6
-178 18 -507 26 -733 8 -225 17 -456 21 -512 5 -96 5 -103 -13 -103 -10 0
-110 32 -223 71 -113 38 -243 83 -290 99 -47 16 -258 88 -470 160 -212 72
-421 143 -465 158 -81 26 -105 38 -105 52 0 4 42 39 93 77 50 38 387 290 747
561 360 271 657 492 660 492 4 0 12 -145 19 -322z m1951 260 c7 -24 29 -108
51 -188 68 -253 78 -292 123 -460 25 -91 47 -181 51 -200 l6 -36 -227 -174
c-269 -206 -520 -399 -675 -520 -32 -25 -119 -91 -193 -148 l-134 -104 -59 7
c-32 4 -96 13 -142 21 -46 8 -88 14 -92 14 -20 0 -7 40 29 91 21 30 175 250
342 489 167 239 382 548 479 685 96 138 224 321 284 408 120 174 138 187 157
115z m970 34 c37 -5 56 -12 58 -22 1 -8 -17 -64 -41 -125 -43 -110 -43 -110
-77 -110 l-34 0 -28 105 c-48 177 -49 160 13 159 30 -1 79 -4 109 -7z m-2846
-128 c36 -126 122 -420 188 -644 22 -74 43 -148 48 -165 4 -16 26 -91 48 -166
23 -75 48 -160 56 -190 8 -30 42 -146 75 -259 l60 -205 -24 -25 -25 -24 -191
64 c-105 35 -196 69 -204 74 -13 11 -13 13 -35 571 -5 138 -14 365 -20 505
-21 525 -23 595 -16 589 3 -3 21 -59 40 -125z m3123 106 c33 0 50 -6 69 -25
13 -13 33 -29 44 -35 24 -13 25 -22 5 -66 -21 -48 -35 -81 -100 -234 -31 -74
-67 -157 -79 -185 -12 -27 -33 -76 -45 -107 -13 -32 -30 -58 -37 -58 -8 0 -14
4 -14 9 0 5 -23 49 -50 97 -46 78 -49 88 -36 103 53 59 55 149 4 206 l-29 34
52 137 53 136 60 -6 c32 -3 79 -6 103 -6z m-4853 -102 c3 -57 11 -213 17 -348
6 -135 14 -315 19 -400 8 -151 7 -155 -14 -172 -11 -10 -27 -18 -33 -18 -13 0
-127 54 -582 276 l-263 129 328 251 c181 138 367 281 414 317 47 36 90 66 97
66 7 1 13 -34 17 -101z m5031 -55 c4 -32 13 -105 20 -163 42 -314 63 -476 86
-655 5 -44 14 -107 19 -140 27 -179 51 -377 48 -402 -7 -66 -19 -48 -310 472
-154 274 -158 282 -158 302 0 10 4 23 8 29 5 5 15 25 22 44 8 19 24 58 36 85
12 28 39 91 59 140 43 103 55 132 84 197 11 26 21 50 21 52 0 13 43 96 50 96
5 0 11 -26 15 -57z m-6700 -112 c127 -62 290 -142 362 -178 73 -35 135 -68
137 -72 3 -4 8 -26 12 -47 6 -37 4 -41 -33 -64 -23 -15 -48 -44 -63 -74 l-26
-50 -104 2 c-142 3 -410 14 -410 17 0 8 -91 411 -116 514 -12 51 -11 76 4 69
4 -2 111 -54 237 -117z m-295 94 c0 -5 66 -300 100 -445 30 -128 33 -121 -57
-116 -43 3 -172 8 -288 12 -115 3 -214 8 -218 11 -4 3 9 24 30 47 21 23 123
144 228 269 168 201 205 241 205 222z m-1345 -322 c3 -49 7 -110 8 -138 l2
-50 -34 0 c-31 0 -35 4 -46 40 -6 22 -17 49 -25 61 -12 19 -8 30 29 98 23 42
46 76 51 76 4 0 11 -39 15 -87z m7748 -36 c18 -12 12 -49 -63 -387 -4 -19 -17
-78 -28 -130 -12 -52 -31 -138 -43 -190 -11 -52 -27 -125 -34 -162 -8 -37 -21
-95 -29 -130 -8 -35 -29 -128 -46 -208 -44 -205 -41 -202 -70 -93 -10 37 -35
131 -55 208 -21 77 -50 187 -65 245 -25 96 -46 172 -101 377 -10 40 -19 76
-19 80 0 5 50 46 111 93 61 47 176 136 256 198 80 61 151 112 157 112 7 0 20
-6 29 -13z m191 -126 c62 -113 65 -120 52 -147 -8 -16 -21 -46 -30 -66 -9 -21
-22 -53 -30 -70 -8 -18 -40 -94 -71 -168 -31 -74 -65 -153 -75 -175 -19 -44
-52 -120 -101 -235 -17 -41 -39 -93 -49 -115 -10 -22 -39 -92 -65 -155 -85
-207 -88 -202 -30 51 25 107 70 304 101 439 30 135 66 292 80 350 14 58 39
170 57 250 28 127 35 146 56 157 14 6 28 10 32 7 4 -2 37 -58 73 -123z m-5578
11 c-15 -15 -18 -15 -44 1 -26 17 -68 37 -104 50 -11 4 -18 17 -18 31 0 24 0
24 91 -21 83 -42 89 -47 75 -61z m-3053 91 c4 -4 76 -34 159 -69 147 -59 153
-63 169 -100 22 -51 57 -83 110 -98 l44 -13 7 -64 c3 -35 11 -109 17 -164 23
-203 24 -218 14 -214 -6 2 -82 94 -171 204 -88 110 -214 267 -281 349 -92 115
-118 153 -109 163 11 14 31 17 41 6z m148 -335 c118 -145 230 -283 251 -308
147 -182 148 -184 148 -217 0 -18 11 -131 25 -250 13 -120 42 -387 65 -593 22
-206 44 -405 50 -442 23 -155 9 -142 -58 57 -28 83 -81 236 -118 340 -36 105
-99 285 -139 400 -40 116 -83 237 -94 270 -12 33 -46 130 -75 215 -30 85 -63
182 -75 215 -13 33 -31 85 -41 115 -31 91 -147 424 -155 443 -4 9 -5 17 -2 17
3 0 101 -118 218 -262z m3367 41 c213 -105 406 -200 430 -211 68 -33 60 -54
-54 -133 -53 -36 -102 -69 -110 -72 -8 -3 -103 50 -211 118 -109 67 -228 141
-265 163 -36 23 -107 67 -156 98 l-90 57 -4 62 c-3 57 -1 63 25 85 16 13 33
24 38 24 5 0 184 -86 397 -191z m-2797 11 c10 -143 11 -164 10 -174 -1 -5 -24
24 -52 65 -28 41 -65 91 -81 111 l-29 37 23 31 c21 28 27 31 73 28 l50 -3 6
-95z m684 81 l74 -6 -63 -75 c-34 -41 -145 -174 -245 -295 -100 -121 -186
-220 -191 -220 -5 0 -51 59 -103 131 l-94 132 -11 153 c-7 85 -12 165 -12 178
l0 23 285 -7 c158 -4 319 -10 360 -14z m756 -17 c10 -3 21 -31 33 -82 10 -42
24 -106 32 -142 8 -36 24 -101 34 -145 22 -92 59 -257 90 -395 12 -52 30 -131
40 -175 10 -44 24 -105 31 -135 7 -30 20 -86 30 -124 l17 -69 -35 -33 c-20
-19 -42 -34 -50 -34 -8 0 -267 84 -575 187 l-560 187 -123 170 c-102 141 -121
173 -112 186 7 9 126 152 266 319 l254 304 306 -7 c168 -4 313 -9 322 -12z
m556 -11 c8 -3 21 -22 29 -42 19 -45 48 -76 86 -92 36 -15 37 18 -17 -374 -20
-143 -40 -291 -45 -330 -5 -38 -19 -140 -30 -225 l-21 -155 -37 -32 c-56 -49
-80 -59 -100 -45 -9 7 -28 18 -42 24 -34 17 -36 21 -54 102 -9 39 -37 161 -61
271 -58 256 -83 369 -96 425 -12 54 -27 120 -39 175 -5 22 -13 60 -19 85 -6
25 -18 77 -26 115 -9 39 -18 78 -21 88 -5 17 8 18 237 16 133 0 249 -3 256 -6z
m6123 -240 c68 -120 163 -288 211 -373 49 -86 89 -163 89 -172 0 -8 -7 -21
-15 -28 -8 -7 -17 -33 -21 -60 l-6 -47 -112 -42 c-61 -23 -145 -55 -186 -71
-41 -16 -142 -54 -225 -85 -82 -31 -184 -70 -225 -86 -89 -34 -85 -34 -112
-10 l-20 20 32 78 c18 43 40 96 50 118 10 22 35 81 55 130 21 50 63 151 95
225 32 74 79 187 105 250 26 63 55 133 65 155 28 64 77 179 83 198 4 9 8 17
11 17 2 0 59 -98 126 -217z m-8278 159 c9 -15 46 -67 83 -117 36 -49 73 -100
82 -113 11 -16 20 -75 30 -204 15 -173 14 -182 -3 -195 -32 -23 -50 -14 -104
53 -58 72 -56 65 -80 274 -18 161 -30 265 -36 298 -8 39 5 41 28 4z m2532 -51
c34 -21 188 -116 344 -212 155 -95 281 -176 280 -180 -5 -14 -934 -659 -948
-659 -9 0 -7 20 10 135 5 33 14 96 20 140 26 195 51 375 60 440 5 39 17 121
26 184 19 135 20 141 46 141 10 0 36 11 56 25 20 14 39 25 41 25 3 0 32 -17
65 -39z m4777 -67 c3 -16 19 -74 34 -129 32 -119 58 -217 91 -345 13 -52 33
-124 43 -160 11 -36 36 -129 56 -206 l36 -141 -29 -29 c-15 -16 -33 -37 -39
-47 -11 -22 19 -25 -560 63 -35 6 -91 14 -125 19 -35 5 -137 21 -228 35 -91
14 -230 35 -310 47 -80 12 -148 24 -153 28 -4 4 82 75 190 158 109 83 239 182
288 220 50 39 194 149 320 247 127 97 259 199 294 227 35 27 69 48 75 46 6 -2
13 -17 17 -33z m-3406 -269 c700 -238 904 -308 1065 -361 91 -31 168 -59 172
-63 4 -3 10 -101 13 -216 3 -116 8 -226 10 -246 6 -45 0 -53 -114 -138 l-93
-70 -31 16 c-18 9 -61 35 -97 58 -36 24 -173 109 -305 191 -585 360 -863 532
-897 555 -38 25 -44 41 -63 189 -3 25 -10 76 -15 114 -9 65 -7 86 8 86 4 0
160 -52 347 -115z m-411 92 c12 -9 21 -40 31 -107 23 -167 26 -200 16 -200 -5
0 -58 30 -118 67 -59 36 -123 75 -140 86 -18 10 -33 21 -33 22 0 8 204 145
215 145 6 0 19 -6 29 -13z m-3180 -139 c36 -50 66 -96 66 -102 0 -14 -71 -103
-87 -110 -28 -12 -40 23 -47 136 -4 62 -9 125 -12 141 -10 47 12 30 80 -65z
m3054 -129 c92 -55 174 -109 183 -119 10 -12 22 -65 33 -152 10 -73 21 -160
27 -193 5 -33 18 -130 30 -215 11 -85 29 -216 39 -290 11 -74 26 -189 35 -255
9 -66 20 -147 25 -181 17 -103 19 -99 -62 -123 -40 -13 -98 -31 -129 -42 -30
-10 -63 -19 -72 -19 -9 0 -79 35 -154 78 -142 81 -513 290 -593 335 -69 38
-565 319 -568 322 -2 2 4 53 12 114 9 62 16 115 16 120 0 8 112 89 460 334 91
64 251 177 355 251 105 75 191 135 193 136 2 0 78 -45 170 -101z m-2898 -87
c111 -154 123 -172 117 -178 -3 -4 -63 13 -132 37 -122 42 -125 44 -135 77 -9
33 -6 38 37 88 25 30 48 54 52 53 3 0 31 -34 61 -77z m-354 -55 c-6 -55 10
-93 51 -118 l35 -22 -6 -196 c-3 -108 -6 -313 -6 -456 -2 -267 -10 -297 -29
-105 -6 52 -19 172 -30 265 -11 94 -25 213 -31 265 -6 52 -21 180 -33 283 -13
103 -21 190 -18 192 2 3 19 -12 38 -33 28 -31 33 -43 29 -75z m4064 -356 c173
-107 342 -210 375 -231 33 -20 110 -67 170 -105 179 -111 188 -116 179 -125
-5 -4 -61 -47 -124 -95 -279 -213 -292 -221 -370 -244 -41 -13 -100 -31 -130
-41 -30 -10 -98 -32 -150 -48 -52 -16 -148 -46 -213 -67 -65 -20 -120 -35
-122 -34 -2 4 -53 340 -75 504 -5 33 -23 157 -40 275 -17 118 -38 262 -46 320
-7 58 -18 132 -23 165 -5 33 -7 63 -4 67 2 4 61 -28 131 -70 70 -43 269 -165
442 -271z m-3679 193 l166 -55 64 -87 c34 -48 154 -213 264 -367 111 -154 249
-345 306 -423 57 -79 131 -181 164 -227 33 -46 127 -176 208 -289 l148 -206
-16 -30 c-9 -17 -22 -29 -28 -26 -9 3 -171 55 -253 81 -6 2 -45 50 -86 107
-40 57 -200 276 -354 488 -699 961 -784 1080 -784 1091 0 7 7 8 18 4 9 -3 92
-31 183 -61z m164 -526 c225 -310 490 -675 589 -811 165 -226 191 -269 161
-259 -16 6 -193 62 -260 82 -33 10 -141 43 -240 73 -99 31 -200 62 -225 70
-25 8 -99 32 -165 52 -220 67 -199 56 -209 105 -7 30 -22 55 -49 81 l-38 38 0
228 c1 368 14 903 21 903 4 0 191 -253 415 -562z m4748 495 c108 -37 197 -71
197 -77 -1 -11 -389 -310 -395 -304 -5 5 -23 432 -18 441 6 11 5 11 216 -60z
m3147 19 c0 -5 -249 -299 -552 -653 -304 -355 -566 -660 -581 -678 -34 -41
-43 -35 -29 21 17 68 29 121 67 303 20 94 40 188 45 210 28 123 49 217 60 275
15 76 22 87 59 95 35 7 69 43 79 80 7 25 26 35 207 108 110 44 292 117 405
162 200 81 240 94 240 77z m-7610 -135 c74 -24 277 -91 450 -147 443 -144 429
-138 446 -172 8 -16 30 -38 48 -49 l34 -20 -4 -292 c-5 -417 -13 -779 -16
-782 -2 -1 -12 -5 -24 -9 -17 -5 -30 5 -71 61 -59 82 -226 311 -350 483 -49
69 -130 180 -179 248 -133 184 -155 214 -205 284 -25 34 -105 146 -178 247
-73 102 -135 191 -138 197 -6 15 -6 15 187 -49z m4905 28 c44 -8 92 -15 108
-15 15 0 27 -4 27 -10 0 -11 -234 -192 -247 -191 -4 0 -14 44 -20 97 -11 88
-11 100 4 116 19 21 25 22 128 3z m2480 -287 c-567 -752 -825 -1094 -1054
-1398 -139 -184 -257 -337 -263 -339 -14 -5 -20 -19 107 224 60 116 119 228
130 249 17 33 27 41 70 52 64 16 105 61 105 117 0 21 -5 47 -10 58 -9 16 32
68 312 391 178 205 341 394 363 419 41 49 401 465 420 485 5 7 12 10 14 8 2
-2 -85 -122 -194 -266z m-2657 250 c7 -7 12 -35 12 -62 1 -28 5 -71 10 -96 7
-36 5 -49 -8 -63 -14 -16 -329 -262 -358 -280 -7 -4 -27 2 -47 15 -19 13 -41
28 -50 33 -9 6 -17 33 -21 73 -5 59 -4 63 22 86 69 62 399 306 413 306 8 0 20
-5 27 -12z m508 -13 c54 -8 144 -22 199 -30 55 -8 161 -24 235 -36 74 -11 162
-24 195 -29 33 -5 120 -18 193 -29 277 -44 399 -62 444 -68 70 -9 81 -28 37
-67 -27 -24 -616 -519 -882 -740 l-48 -40 -152 51 c-425 145 -593 205 -603
216 -6 7 -19 89 -28 182 -10 94 -22 213 -27 265 -10 92 -10 95 13 111 13 10
84 64 158 122 74 58 142 106 151 106 9 1 60 -6 115 -14z m-4040 -200 c-3 -13
-9 -52 -13 -85 -3 -33 -9 -63 -14 -65 -4 -3 -24 4 -43 16 -55 32 -47 83 20
130 48 35 58 36 50 4z m3573 -147 c20 -160 44 -408 39 -413 -3 -3 -30 4 -59
15 -30 12 -115 42 -189 67 -74 24 -140 50 -146 56 -6 7 -14 28 -17 48 -5 34
-3 37 85 105 50 38 129 99 177 136 47 37 89 68 92 68 4 0 12 -37 18 -82z
m1777 -50 c-21 -57 -44 -121 -53 -143 -8 -22 -23 -65 -33 -95 -10 -30 -60
-174 -110 -320 -51 -146 -94 -273 -97 -282 -3 -10 -10 -18 -17 -18 -9 0 -171
55 -356 121 -30 10 -90 31 -132 45 -43 14 -78 29 -78 33 0 3 91 83 202 176
111 94 225 190 253 215 28 25 87 75 131 112 43 36 133 112 198 167 66 55 122
99 124 96 3 -2 -12 -50 -32 -107z m-5443 21 c46 -25 57 -35 57 -56 0 -21 -28
-232 -60 -448 -17 -118 -40 -286 -51 -378 -23 -200 -27 -157 -28 364 -1 295 2
539 6 542 10 11 16 9 76 -24z m3117 -13 c0 -42 -1 -44 -44 -60 -24 -9 -51 -25
-61 -36 -16 -18 -19 -18 -41 -3 -14 9 -23 20 -22 25 5 14 141 117 156 117 8 1
12 -14 12 -43z m-2877 -120 c73 -40 159 -88 192 -106 142 -78 345 -190 410
-225 39 -21 84 -46 100 -55 32 -19 80 -45 245 -135 132 -72 170 -95 170 -104
0 -3 -21 -13 -47 -20 -27 -8 -86 -26 -133 -41 -47 -15 -152 -49 -235 -75 -82
-25 -175 -55 -205 -65 -81 -26 -325 -102 -480 -150 -74 -23 -153 -48 -175 -57
-37 -14 -41 -13 -50 3 -5 9 -25 34 -42 54 l-32 37 24 179 c14 98 30 208 35
244 9 54 25 172 75 548 4 23 9 42 12 42 2 0 64 -33 136 -74z m5143 -263 c-78
-316 -106 -427 -109 -429 -1 -1 -19 -5 -41 -8 -30 -6 -38 -4 -34 6 4 10 215
639 234 697 2 8 7 11 10 8 3 -3 -24 -126 -60 -274z m-2445 250 c27 -16 29 -22
27 -63 l-3 -45 -130 -42 c-71 -24 -159 -52 -193 -64 -35 -11 -66 -19 -68 -16
-6 6 309 246 324 246 8 1 27 -7 43 -16z m588 -229 c101 -35 185 -65 186 -66 2
-2 15 -118 29 -258 15 -140 31 -291 36 -334 16 -124 14 -132 -20 -146 -17 -7
-38 -26 -47 -41 -10 -16 -23 -29 -30 -29 -7 0 -108 16 -225 36 -117 19 -240
39 -273 44 -97 15 -155 27 -162 34 -6 5 8 112 27 206 5 25 14 81 20 125 7 44
20 130 30 190 10 61 21 132 25 158 4 33 12 50 23 53 45 13 105 50 123 76 25
34 12 36 258 -48z m-526 43 c8 -12 31 -31 51 -42 42 -23 40 -16 21 -131 -8
-49 -19 -118 -25 -154 -6 -36 -19 -117 -29 -180 -11 -63 -25 -153 -32 -199 -7
-46 -18 -85 -24 -88 -10 -3 -82 8 -305 47 -59 11 -390 66 -480 80 -30 5 -93
15 -140 23 -47 8 -106 18 -132 22 -25 3 -49 12 -52 20 -6 16 2 23 190 165 76
58 196 148 266 201 138 105 106 91 458 201 52 16 113 36 135 43 59 20 81 18
98 -8z m1083 -233 c170 -58 324 -110 342 -115 17 -6 32 -13 32 -17 0 -7 -574
-494 -588 -500 -5 -1 -16 4 -26 11 -19 14 -21 31 -46 282 -5 55 -15 143 -20
195 -28 239 -28 250 -10 250 3 0 145 -48 316 -106z m-1776 48 c0 -4 -106 -88
-236 -186 -235 -178 -237 -179 -263 -163 -35 21 -48 51 -53 121 l-3 59 85 28
c47 15 146 46 220 69 74 23 158 50 185 60 59 21 65 22 65 12z m-596 -214 c17
-115 18 -113 -15 -137 -27 -20 -32 -21 -47 -8 -9 8 -50 32 -90 53 -40 21 -71
42 -69 48 3 9 174 72 204 75 7 0 14 -14 17 -31z m3029 -57 c313 -107 379 -129
383 -133 4 -4 -22 -82 -36 -108 -5 -10 -47 -40 -92 -68 -46 -27 -207 -125
-358 -216 -192 -117 -281 -165 -296 -162 -11 3 -38 13 -60 23 -21 9 -115 49
-209 87 -219 91 -218 87 -69 212 59 49 197 167 308 261 111 95 207 173 214
173 7 0 103 -31 215 -69z m-6248 -40 c239 -76 442 -140 560 -177 66 -20 183
-57 259 -83 l139 -46 69 -95 c110 -152 122 -170 112 -179 -5 -5 -81 27 -174
72 -91 44 -280 136 -420 205 -140 68 -351 171 -467 228 -265 129 -275 138 -78
75z m3051 -23 c108 -60 114 -65 114 -95 0 -37 6 -34 -200 -87 -74 -19 -170
-44 -212 -55 -43 -12 -113 -30 -155 -42 -43 -11 -128 -33 -189 -49 -133 -35
-356 -93 -439 -115 -33 -9 -98 -26 -146 -39 l-85 -22 -80 33 c-43 19 -87 36
-96 40 -18 5 -24 39 -10 58 4 6 106 42 227 79 121 38 261 81 310 97 165 52
419 131 480 149 33 10 123 38 200 63 77 25 146 46 154 46 7 1 65 -27 127 -61z
m-2861 -158 c215 -106 512 -252 662 -326 249 -122 272 -136 278 -162 9 -43 46
-72 101 -80 l48 -7 101 -170 c56 -94 148 -247 204 -342 92 -154 108 -193 82
-193 -5 0 -64 44 -132 98 -143 112 -558 438 -758 593 -396 307 -941 734 -976
765 -22 19 -31 31 -20 25 11 -5 196 -95 410 -201z m3180 11 c3 -6 27 -13 53
-16 26 -4 85 -14 132 -22 47 -8 112 -18 145 -23 33 -5 87 -14 120 -20 33 -6
87 -15 120 -20 33 -4 141 -22 240 -38 99 -17 202 -33 228 -37 29 -4 50 -12 54
-22 3 -8 1 -45 -6 -81 -6 -37 -23 -139 -36 -227 -14 -88 -29 -182 -34 -210 -5
-27 -15 -88 -22 -135 -7 -47 -17 -91 -22 -97 -8 -11 -176 -132 -383 -276 -45
-32 -88 -57 -95 -56 -8 0 -52 19 -99 42 l-84 42 -47 145 c-26 80 -93 287 -149
460 -56 173 -116 358 -133 410 -17 52 -36 101 -43 109 -22 25 -28 -12 -11 -66
9 -26 55 -169 102 -318 48 -148 101 -313 118 -365 16 -52 47 -148 69 -214 21
-65 38 -122 38 -127 0 -15 -16 -11 -85 21 -36 17 -68 30 -70 30 -3 0 -24 9
-48 19 -48 23 -238 105 -442 193 -77 33 -158 68 -180 78 -22 10 -60 27 -85 38
-25 11 -94 41 -155 67 -110 48 -152 66 -235 103 -25 11 -108 47 -185 80 -77
33 -169 73 -205 89 -36 16 -80 35 -98 43 -42 17 -36 20 93 54 120 31 349 92
425 112 30 8 105 28 165 44 120 32 224 60 410 110 66 18 129 35 140 37 11 3
41 12 67 20 43 13 50 13 70 -1 34 -24 82 -20 115 9 31 27 39 30 48 16z m3307
-123 c-41 -73 -84 -153 -117 -216 -15 -29 -30 -51 -32 -48 -3 3 16 69 42 148
38 114 54 149 78 171 27 23 33 25 45 13 13 -12 10 -22 -16 -68z m-112 -2 c0
-3 -22 -67 -49 -143 -27 -76 -62 -176 -78 -223 -27 -82 -30 -85 -63 -91 -45
-7 -75 -23 -94 -51 l-15 -21 -118 50 c-65 28 -139 58 -165 68 -27 10 -48 23
-48 29 0 6 17 20 38 32 44 25 325 195 472 287 99 62 120 73 120 63z m-5327
-128 c19 -72 88 -128 158 -128 36 0 51 -37 23 -57 -31 -23 -68 -16 -92 17 -31
41 -75 62 -116 55 -32 -6 -35 -4 -81 62 -27 37 -61 83 -76 102 -16 19 -26 38
-24 41 3 4 48 -7 102 -25 92 -31 98 -35 106 -67z m3376 41 c36 -5 91 -14 121
-19 137 -23 311 -51 380 -62 41 -6 82 -17 90 -25 18 -17 23 -13 -149 -133 -67
-47 -182 -128 -256 -180 -74 -52 -173 -122 -221 -155 -47 -33 -105 -74 -127
-92 -23 -17 -44 -30 -48 -27 -4 2 -3 21 1 41 5 21 13 70 19 108 6 39 18 113
26 165 9 52 25 153 35 223 26 169 29 180 48 172 8 -3 45 -10 81 -16z m-2990
-164 c1 -5 -28 -18 -65 -28 -65 -18 -68 -18 -81 -1 -19 26 -16 40 12 62 l26
20 53 -21 c29 -12 54 -26 55 -32z m3879 4 c53 -23 120 -51 147 -64 28 -12 76
-32 108 -45 46 -19 55 -26 45 -36 -14 -13 -174 -112 -338 -209 -58 -34 -186
-111 -285 -172 -318 -194 -366 -222 -398 -228 -32 -7 -319 -86 -390 -107 -20
-6 -39 -9 -41 -7 -3 2 5 62 17 134 l22 129 230 164 c644 459 616 441 666 435
36 -4 50 0 79 20 19 14 36 26 38 26 1 1 46 -18 100 -40z m-3598 -116 c47 -19
99 -41 115 -48 17 -7 118 -50 225 -95 107 -46 214 -91 237 -102 24 -10 54 -23
68 -28 30 -11 232 -97 650 -275 171 -72 326 -138 345 -145 91 -37 102 -45 120
-99 l19 -51 -26 -30 c-13 -17 -30 -30 -36 -30 -9 0 -206 72 -272 100 -11 5
-99 38 -195 75 -96 37 -183 71 -192 76 -10 5 -22 9 -28 9 -6 0 -29 9 -53 19
-40 18 -180 73 -562 218 -93 35 -178 69 -187 74 -10 5 -22 9 -28 9 -6 0 -29 9
-53 19 -23 11 -109 45 -192 76 -82 31 -159 61 -170 66 -11 5 -49 20 -84 32
l-64 23 -23 64 c-13 35 -22 65 -21 67 1 1 47 14 102 28 55 15 102 28 104 30 2
2 29 -7 60 -21 31 -14 94 -41 141 -61z m-434 -35 c16 -46 10 -47 -70 -17 -62
24 -70 36 -28 45 15 3 32 7 37 9 29 10 49 -2 61 -37z m4450 -25 c22 -9 104
-44 184 -78 91 -38 145 -67 145 -76 0 -10 -56 -30 -190 -67 -104 -29 -212 -60
-240 -67 -27 -8 -124 -35 -215 -60 -183 -50 -206 -56 -300 -84 -138 -40 -262
-72 -266 -69 -2 2 20 18 49 34 29 17 124 75 212 129 88 53 234 143 325 198 91
55 185 112 210 128 25 15 46 28 46 28 1 1 19 -7 40 -16z m-4491 -53 c11 -4 34
-13 50 -19 27 -10 34 -23 62 -104 31 -91 137 -391 167 -476 9 -24 14 -46 11
-49 -8 -8 21 -57 -281 472 -63 109 -114 203 -114 207 0 8 35 -3 105 -31z m260
-99 c55 -22 179 -69 275 -106 96 -37 184 -70 195 -75 32 -14 285 -111 340
-130 28 -10 102 -38 165 -63 63 -24 183 -70 265 -101 146 -56 405 -155 572
-219 45 -18 79 -34 77 -37 -7 -6 -267 -2 -579 10 -137 5 -442 15 -677 21 -361
10 -428 15 -428 27 0 34 -45 92 -85 111 -43 20 -48 28 -79 121 -8 25 -45 131
-81 235 -87 247 -86 245 -72 245 7 0 57 -18 112 -39z m4580 -70 c-8 -8 -274
-104 -415 -151 -14 -5 -108 -38 -210 -73 -102 -36 -246 -86 -320 -112 -74 -25
-144 -50 -155 -55 -19 -8 -188 -68 -315 -110 -52 -18 -216 -76 -343 -122 -31
-11 -59 -19 -62 -16 -2 2 57 41 133 86 75 46 180 109 232 142 52 33 101 59
109 60 11 0 119 29 256 69 17 4 48 13 70 20 22 6 132 36 245 66 198 53 251 67
315 87 17 5 98 27 180 50 83 22 170 46 195 53 55 16 98 19 85 6z m-1940 -293
c-4 -24 -13 -76 -19 -117 -13 -85 0 -76 -197 -131 -111 -31 -117 -31 -148 -16
-17 9 -31 20 -30 24 0 4 68 54 151 112 83 58 169 120 192 137 22 18 45 33 50
33 5 0 5 -19 1 -42z m355 -132 c0 -2 -30 -22 -67 -44 -38 -21 -106 -62 -152
-91 l-84 -52 -23 22 c-28 26 -31 65 -6 77 9 5 71 23 137 41 66 18 129 37 140
41 21 9 55 13 55 6z m-907 -85 c31 -14 57 -28 57 -31 0 -16 -50 -32 -78 -25
-22 4 -33 15 -41 37 -13 37 -14 51 -3 46 4 -1 33 -14 65 -27z m417 -45 c0 -3
-15 -21 -32 -40 -33 -35 -33 -35 -66 -19 -18 9 -30 19 -27 22 6 5 100 38 118
40 4 1 7 -1 7 -3z m-276 -12 c9 -3 16 -10 16 -14 0 -9 -101 -42 -108 -36 -4 5
58 56 68 56 5 0 15 -3 24 -6z m148 -66 c32 -13 57 -27 55 -33 -5 -13 -286 -14
-289 0 -3 11 114 53 152 54 13 1 50 -9 82 -21z"/>
</g>
</svg>
